<?xml version="1.0" encoding="UTF-8"?>
<svg id="Layer_1" data-name="Layer 1" xmlns="http://www.w3.org/2000/svg" viewBox="0 0 950 950">
  <defs>
    <style>
      .cls-1 {
        fill: #c6282d;
      }

      .cls-1, .cls-2, .cls-3, .cls-4, .cls-5, .cls-6 {
        fill-rule: evenodd;
      }

      .cls-2 {
        fill: #fcfdfd;
      }

      .cls-3 {
        fill: #fefefe;
      }

      .cls-4 {
        fill: #eee;
      }

      .cls-5 {
        fill: #2a2828;
      }

      .cls-6 {
        fill: #f9be0b;
      }
    </style>
  </defs>
  <path class="cls-3" d="m745.33,221.45c-73.09-73.09-170.26-113.34-273.62-113.34s-200.53,40.25-273.62,113.34c-73.09,73.09-113.34,170.26-113.34,273.62s40.25,200.53,113.34,273.62c73.09,73.09,170.26,113.34,273.62,113.34s200.53-40.25,273.62-113.34c73.09-73.08,113.34-170.26,113.34-273.62s-40.25-200.54-113.34-273.62Z"/>
  <g>
    <path class="cls-5" d="m802.08,147.52C714.6,60.04,598.29,11.86,474.56,11.86S234.52,60.04,147.04,147.52C59.55,235.01,11.37,351.32,11.37,475.05s48.18,240.04,135.67,327.53c87.49,87.48,203.8,135.66,327.53,135.66s240.04-48.18,327.53-135.66c87.48-87.49,135.66-203.8,135.66-327.53s-48.18-240.04-135.67-327.52Z"/>
    <path class="cls-3" d="m794.24,155.37C708.85,69.97,595.32,22.95,474.56,22.95s-234.29,47.03-319.68,132.42C69.49,240.75,22.46,354.28,22.46,475.05s47.03,234.29,132.42,319.68c85.39,85.38,198.92,132.41,319.68,132.41s234.29-47.03,319.68-132.41c85.39-85.39,132.41-198.92,132.41-319.68s-47.03-234.3-132.41-319.68Z"/>
    <path class="cls-1" d="m786.4,163.21c-83.3-83.3-194.05-129.17-311.84-129.17s-228.54,45.87-311.84,129.17C79.43,246.5,33.55,357.25,33.55,475.05s45.88,228.55,129.17,311.84c83.3,83.3,194.04,129.16,311.84,129.16s228.54-45.86,311.84-129.16c83.3-83.29,129.17-194.04,129.17-311.84s-45.87-228.54-129.17-311.84Z"/>
    <path class="cls-3" d="m686.19,263.42c-56.53-56.53-131.68-87.66-211.62-87.66s-155.1,31.13-211.63,87.66c-56.53,56.53-87.65,131.68-87.65,211.62s31.13,155.09,87.65,211.62c56.53,56.52,131.69,87.66,211.63,87.66s155.09-31.14,211.62-87.66c56.52-56.53,87.66-131.69,87.66-211.62s-31.13-155.1-87.66-211.62Z"/>
    <path class="cls-5" d="m678.35,271.27c-54.44-54.43-126.8-84.41-203.78-84.41s-149.35,29.98-203.78,84.41c-54.43,54.43-84.41,126.8-84.41,203.78s29.98,149.35,84.41,203.78c54.43,54.44,126.8,84.41,203.78,84.41s149.35-29.97,203.78-84.41c54.43-54.43,84.41-126.8,84.41-203.78s-29.98-149.35-84.41-203.78h0Zm-203.78,480.87h0c-153.04,0-277.1-124.06-277.1-277.09s124.06-277.1,277.1-277.1,277.1,124.06,277.1,277.1-124.06,277.09-277.1,277.09Z"/>
    <g>
      <path class="cls-4" d="m512.97,742.99c1.85-.26,3.7-.55,5.55-.84V207.94c-1.85-.3-3.7-.58-5.55-.84v535.89Z"/>
      <path class="cls-4" d="m677.67,653.93c1.88-2.12,3.73-4.28,5.55-6.47v-344.83c-1.82-2.19-3.67-4.34-5.55-6.47v357.77Z"/>
      <path class="cls-4" d="m595.32,717.34c1.87-.94,3.72-1.88,5.55-2.86V235.61c-1.83-.97-3.68-1.92-5.55-2.85v484.58Z"/>
      <path class="cls-4" d="m430.61,742.15c1.84.3,3.69.58,5.54.84V207.1c-1.85.26-3.7.54-5.54.84v534.21Z"/>
      <path class="cls-4" d="m348.26,714.48c1.83.97,3.68,1.92,5.54,2.86V232.76c-1.86.93-3.71,1.88-5.54,2.85v478.87Z"/>
      <path class="cls-4" d="m265.9,647.46c1.81,2.19,3.67,4.34,5.54,6.48v-357.78c-1.87,2.13-3.73,4.28-5.54,6.47v344.83Z"/>
    </g>
    <path class="cls-3" d="m788.5,334.94c-1.82-4.37-5.22-7.77-9.59-9.57-.43-.17-.87-.32-1.31-.44l-6.22-1.7-48.68-13.37c-.58-.41-4.38-2.67-3.27-1.09.06.09.1.16.15.23l-5.46-1.5,3.1,3.81-139.35,57.14,41.86-45.55c.15-.16.29-.33.43-.5l29.76-36.55c1.2-1.46,1.99-3.2,2.32-5.07l2.15-12.01c.7-3.95-.95-2.32-4.05-4.86l-9.09-4.13c-2.01-1.65-3.31,4.13-5.85,4.13-1.01,0,2.48-10.96,1.49-10.68-3.49.99-6.28,3.62-7.47,7.05l-2.98,8.62-80.66,74.77c-.98-1.7-2.4-3.13-4.14-4.12l-5.2-2.94c.15-8.44-1.68-21.12-12.52-28.47-3.51-2.38-9.61-4.66-13.57-5.99-.08-.09-.15-.19-.24-.28l18.57-26.78c32.48-16.7,35.18-25.06,36.08-27.86,1.61-4.99-.5-10.43-5.06-13.04-2-1.14-4.42-1.72-7.19-1.72-8.98,0-22.8,6.19-42.28,18.94-1.18.78-2.21,1.77-3.02,2.93l-20.91,29.95c-2.58-.56-5.56-.96-8.82-.96s-6.24.4-8.81.96l-20.91-29.95c-.81-1.16-1.83-2.16-3.02-2.93-19.47-12.74-33.3-18.94-42.27-18.94-2.78,0-5.21.58-7.2,1.72-4.55,2.6-6.66,8.04-5.05,13.03.9,2.8,3.6,11.15,36.08,27.86l18.57,26.78c-.09.09-.16.19-.24.28-3.96,1.33-10.06,3.6-13.57,5.99-10.83,7.35-12.66,20.03-12.52,28.47l-5.2,2.94c-2.15,1.21-3.78,3.12-4.73,5.38l-82.02-76.04-2.99-8.62c-1.18-3.43-3.98-6.06-7.47-7.05-.99-.28-2.01-.42-3.01-.42-2.54,0-3.23,2.24-5.24,3.89l-2.15,3.7c-3.1,2.54-7.79,4.43-7.09,8.37l2.14,12.01c.33,1.86,1.13,3.61,2.32,5.07l29.78,36.55c.14.17.28.34.43.5l41.86,45.55-140.71-57.69c-.51-.21-1.03-.37-1.55-.5.6-.82,1.04-1.43,1.04-1.43l-4.06,1.12c-1.75.06-3.47.53-5.01,1.38l-41.83,11.52-7.62,2.09c-.44.12-.88.27-1.31.44-4.37,1.81-7.77,5.21-9.59,9.57-1.74,4.18-1.82,8.77-.23,12.99l6.71,21.4,13.61,43.5c-.17,1.34-.13,2.71.22,4.08,1.27,4.9,5.68,8.31,10.74,8.31h31.01c-2.65,2.16-4.39,5.17-4.91,8.57-.56,3.65.33,7.3,2.51,10.27.33.45.7.87,1.09,1.27l40.86,41.01c2.16,2.17,5.01,3.27,7.86,3.27.43,0,.86-.07,1.29-.12,2.07,2.7,5.29,4.35,8.8,4.35h38.82c1.85,0,3.67-.46,5.3-1.35l25.76-14.01c-3.04,4.41-4.31,7.89-4.83,9.87-1.69,4.89-15.75,45.09-28.88,73.12-5.49,11.72-18.87,33.57-39.77,64.94-1.47,2.21-2.13,3.21-2.49,3.77-.55.18-1.79.26-2.48.32-.92.06-1.97.14-3.08.36-2.13.43-6.69,1.2-6.74,1.22-4.13.7-7.51,3.68-8.74,7.68-1.23,4.01,1.54,4.4,4.56,7.29.88.85,7.34,12.25,18.41,12.25,7.67,0,15.37-4.83,17.55-6.3.95-.65,1.79-1.43,2.5-2.34l76.31-97.36v35.98c0,1.95.52,3.88,1.5,5.58l30.51,52.45c.74,1.28,1.74,2.4,2.92,3.29l42.12,31.67,15.66,18.7c2.11,2.51,5.22,3.97,8.5,3.97s6.4-1.46,8.51-3.97l15.66-18.7,42.12-31.67c1.18-.89,2.18-2.01,2.92-3.29l30.5-52.45c.99-1.69,1.5-3.62,1.5-5.58v-33.48l74.35,94.85c.71.91,1.55,1.69,2.5,2.34,2.18,1.48,9.89,6.3,17.56,6.3,11.06,0,15.39-13.72,16.28-14.56,3.03-2.89,8.16-5.23,6.93-9.24-1.22-4.01-4.85-2.72-8.98-3.42-.05-.01-4.61-.79-6.74-1.22-1.12-.22-2.16-.3-3.09-.36-.69-.06-1.92-.14-2.47-.32-.37-.58-1.04-1.58-2.49-3.77-20.9-31.38-34.28-53.23-39.77-64.94-12.98-27.7-27.16-68.16-28.89-73.13-.51-1.98-1.78-5.46-4.82-9.86l25.76,14.01c1.63.89,3.45,1.35,5.31,1.35h38.82c3.51,0,6.73-1.66,8.8-4.35.43.05.86.12,1.29.12,2.85,0,5.69-1.1,7.86-3.27l40.86-41.01c.39-.4.76-.82,1.09-1.27,4.36-5.94,3.23-14.23-2.41-18.84h31.01c3.13,0,4.91-1.32,6.13-3.47.42,1.93.92,3.54.92,3.54l19.25-61.43,4.99-15.93c1.58-4.22,1.51-8.81-.23-12.99Z"/>
    <g>
      <g>
        <path class="cls-5" d="m218.78,324.51c-.22.07-.41.14-.55.19l-39.87,10.91c-3.37,1.39-4.98,5.26-3.58,8.63l18.5,59.02,55.92-29.81-30.42-48.95Z"/>
        <path class="cls-5" d="m304.66,450.02l-55.85-24.73c-.08.05-1.1-.04-1.15,0l-13.93,8.41c-1.21.89-1.47,2.59-.58,3.8l40.86,41.02,30.65-28.5Z"/>
        <polygon class="cls-5" points="395.93 399.33 395.93 388.94 230.25 321 258.44 367.68 395.93 399.33"/>
        <polygon class="cls-5" points="313.13 263.89 309.57 266.82 311.71 278.83 341.48 315.38 398.24 377.15 405.64 357.28 317.02 275.13 313.13 263.89"/>
        <polygon class="cls-5" points="395.93 407.19 259.37 378.77 195.59 414.12 395.93 414.12 395.93 407.19"/>
        <polygon class="cls-5" points="395.93 421.98 261.91 421.98 313.09 443.01 395.93 429.61 395.93 421.98"/>
        <polygon class="cls-5" points="322.91 482.76 395.93 443.01 395.93 435.84 318.06 451.56 284.09 482.76 322.91 482.76"/>
        <path class="cls-5" d="m359.8,491.46s-15.31,44.44-29.5,74.71c-10.05,21.44-41.1,67.03-42.98,70.02-3.7,5.89-10.4,5.09-12.71,5.55-2.31.46-7.04,1.27-7.04,1.27,0,0,5.43,5.19,12.36,5.19,4.85,0,11.33-4.39,11.33-4.39l84.88-108.3v-44.83l23.26-32.04c-36.74,16.56-39.59,32.81-39.59,32.81Z"/>
        <path class="cls-5" d="m774.68,335.61l-39.88-10.91c-.13-.06-.33-.12-.55-.19l-30.42,48.95,55.92,29.81,18.5-59.02c1.4-3.37-.21-7.24-3.58-8.63Z"/>
        <path class="cls-5" d="m719.31,433.7l-13.93-8.41c-.05-.04-1.07.05-1.16,0l-55.84,24.73,30.65,28.5,40.86-41.02c.89-1.21.63-2.91-.58-3.8Z"/>
        <polygon class="cls-5" points="557.11 399.33 694.6 367.68 722.79 321 557.11 388.94 557.11 399.33"/>
        <polygon class="cls-5" points="611.57 315.38 641.34 278.83 643.48 266.82 639.91 263.89 636.02 275.13 547.41 357.28 554.8 377.15 611.57 315.38"/>
        <polygon class="cls-5" points="557.11 407.19 557.11 414.12 757.45 414.12 693.68 378.77 557.11 407.19"/>
        <polygon class="cls-5" points="557.11 421.98 557.11 429.61 639.95 443.01 691.14 421.98 557.11 421.98"/>
        <polygon class="cls-5" points="557.11 443.01 630.13 482.76 668.95 482.76 634.98 451.56 557.11 435.84 557.11 443.01"/>
        <path class="cls-5" d="m665.71,636.18c-1.87-2.99-32.93-48.58-42.98-70.02-14.19-30.27-29.5-74.71-29.5-74.71,0,0-2.85-16.25-39.59-32.81l23.26,32.04v44.83l84.88,108.3s6.47,4.39,11.33,4.39c6.93,0,12.36-5.19,12.36-5.19,0,0-4.74-.81-7.05-1.27-2.31-.46-9.02.34-12.71-5.55Z"/>
      </g>
      <path class="cls-5" d="m540.35,456.18l9.24-6.7v-61.47l-13.4-38.82-11.44-6.47s3.63-18.18-7.05-25.42c-3.64-2.47-13.63-5.55-13.63-5.55,0,0-4.27-4.62-7.74-9.47l24.84-35.82s30.74-15.48,33.05-22.65c0,0-6.47-3.69-37.89,16.87l-25.65,36.74s-5.54-3.01-13.17-3.01-13.16,3.01-13.16,3.01l-25.65-36.74c-31.42-20.56-37.9-16.87-37.9-16.87,2.31,7.16,33.04,22.65,33.04,22.65l24.84,35.82c-3.46,4.85-7.74,9.47-7.74,9.47,0,0-9.98,3.07-13.63,5.55-10.67,7.24-7.05,25.42-7.05,25.42l-11.44,6.47-13.4,38.82v61.47l9.25,6.7-27.27,38.59v94.5l30.5,52.45,43.13,32.42,16.48,19.68,16.49-19.68,43.13-32.42,30.5-52.45v-94.5l-27.27-38.59h0Zm-36.51-140.26h0l12.94,23.11-17.56-6.24,4.62-16.87h0Zm-52.68,0h0l4.62,16.87-17.56,6.24,12.94-23.11h0Zm-23.04,85.42h0l49.37-16.94,50.61,22.8-17.02,37.9v-29.81l-33.59-17.71-49.37,6.32v-2.54h0Zm79.42,182.63h-60.08l-32.7-24.96,32.58,12.48h60.31l32.58-12.48-32.69,24.96Z"/>
      <polygon class="cls-6" points="539.91 386.06 536.71 376.8 512.93 355.89 534.09 363.54 531.36 355.61 506.92 342.03 477.5 342.03 448.07 342.03 423.64 355.61 420.9 363.54 442.07 355.89 418.29 376.8 415.09 386.06 414.65 387.47 448.07 369.3 477.5 369.3 506.92 369.3 540.35 387.47 539.91 386.06"/>
      <polygon class="cls-6" points="549.47 602.2 507.77 617.47 477.5 617.23 447.23 617.47 405.53 602.2 421.12 629.02 452.78 639.89 429.92 640.11 464.56 666.22 477.5 666.22 490.44 666.22 525.08 640.11 502.22 639.89 533.88 629.02 549.47 602.2"/>
      <polygon class="cls-6" points="509.16 503.55 544.97 482.76 530.42 462.19 509.39 476.28 477.5 476.28 445.61 476.28 424.58 462.19 410.03 482.76 445.85 503.55 397.32 498.47 397.32 524.35 428.98 536.36 477.5 536.36 526.03 536.36 557.68 524.35 557.68 498.47 509.16 503.55"/>
    </g>
    <path class="cls-3" d="m127.4,469.34c2.01-2.28,3.25-5.27,3.25-8.55,0-7.14-5.79-12.93-12.93-12.93s-12.93,5.79-12.93,12.93c0,3.28,1.23,6.27,3.24,8.55-4.16,3.01-6.87,7.89-6.87,13.42,0,9.14,7.41,16.55,16.56,16.55s16.56-7.41,16.56-16.55c0-5.53-2.72-10.41-6.88-13.42h0Zm-9.68-14.54h0c3.32,0,6,2.68,6,6s-2.68,6-6,6-6-2.68-6-6,2.69-6,6-6h0Zm0,37.27h0c-5.15,0-9.32-4.17-9.32-9.31s4.18-9.32,9.32-9.32,9.32,4.17,9.32,9.32-4.17,9.31-9.32,9.31Z"/>
    <path class="cls-3" d="m834.75,469.34c2.01-2.28,3.24-5.27,3.24-8.55,0-7.14-5.79-12.93-12.93-12.93s-12.93,5.79-12.93,12.93c0,3.28,1.23,6.27,3.24,8.55-4.16,3.01-6.87,7.89-6.87,13.42,0,9.14,7.42,16.55,16.56,16.55s16.56-7.41,16.56-16.55c0-5.53-2.72-10.41-6.87-13.42h0Zm-9.69-14.54h0c3.31,0,6,2.68,6,6s-2.69,6-6,6-5.99-2.68-5.99-6,2.68-6,5.99-6h0Zm0,37.27h0c-5.15,0-9.32-4.17-9.32-9.31s4.17-9.32,9.32-9.32,9.32,4.17,9.32,9.32-4.17,9.31-9.32,9.31Z"/>
    <polygon class="cls-3" points="76.67 499.16 84.83 499.16 84.83 447.87 76.67 453.48 76.67 499.16"/>
    <path class="cls-3" d="m886.66,464.65c0-9.19-7.46-16.64-16.64-16.64s-16.63,7.45-16.63,16.64,7.44,16.63,16.63,16.63c.19,0,.38-.02.58-.03l-10.86,17.89h8.88l15.96-26.46c1.33-2.38,2.09-5.12,2.09-8.05h0Zm-25.96,0h0c0-5.15,4.17-9.33,9.32-9.33s9.32,4.18,9.32,9.33-4.17,9.32-9.32,9.32-9.32-4.17-9.32-9.32Z"/>
    <polygon class="cls-2" points="322.22 164.69 315.96 151.63 336.31 141.87 330.31 129.38 309.96 139.13 303.7 126.07 329.26 113.82 323.27 101.32 297.71 113.57 288.05 118.2 285.21 119.57 315.71 183.18 318.56 181.82 328.21 177.19 355.02 164.34 349.02 151.84 322.22 164.69"/>
    <polygon class="cls-2" points="404.48 77.95 414.69 119.37 374.21 85.48 374.19 85.41 360.73 88.73 377.62 157.23 391.08 153.92 380.66 111.64 421.37 146.45 434.83 143.13 417.94 74.63 404.48 77.95"/>
    <path class="cls-2" d="m261.49,179.56l-.32.43c4.91-6.81,4.94-16.27-.59-23.11-6.48-8-18.06-9.35-26.24-3.25l-.05-.06-11.63,9.4-7.61,6.15-3.17,2.57,44.37,54.86,10.78-8.72-18.11-22.4,4.18-3.38,30.86,12.09,14.49-11.72-36.96-12.86h0Zm-12.08-.48h0l.02.03-8.29,6.71-11.19-13.83,8.29-6.71.02.03c3.81-2.84,9.2-2.22,12.22,1.52,3.02,3.73,2.5,9.13-1.07,12.26Z"/>
    <path class="cls-2" d="m701.18,187.39l-.49-.2c7.79,3.11,16.98.82,22.27-6.21,6.19-8.22,4.68-19.79-3.23-26.23l.05-.06-11.96-8.99-7.82-5.88-3.26-2.45-42.41,56.38,11.08,8.33,17.31-23.02,4.3,3.24-4.21,32.88,14.89,11.2,3.48-38.98h0Zm-2.48-11.83h0l-.02.03-8.52-6.41,10.69-14.22,8.53,6.41-.02.03c3.69,3.01,4.39,8.39,1.5,12.22-2.88,3.83-8.25,4.65-12.16,1.94Z"/>
    <path class="cls-2" d="m201.09,226.54c1.16-5.8-.76-12.03-5.61-16.12-6.93-5.84-17.16-5.07-23.22,1.57l-.05-.04-10.44,12.39-2.55,3.02-6.38,7.58,54.25,45.71,3.17-3.76,5.77-6.84,10.03-11.91-.06-.05c6.71-8.63,5.4-21.15-3.18-28.38-6.3-5.31-14.76-6.25-21.72-3.17h0Zm-30.46,6.12h0l.89-1.06,5.25-6.23.89-1.06.02.02c2.87-3.14,7.71-3.51,10.99-.74,3.28,2.76,3.74,7.6,1.13,10.95l.02.02-.9,1.06-5.25,6.23-.9,1.06-12.17-10.25h0Zm42.66,19.7h0l.03.02-1.01,1.2-5.98,7.09-1.01,1.21-13.83-11.66,1.01-1.21,5.97-7.09,1.01-1.21.03.03c3.26-3.57,8.76-3.99,12.49-.84,3.73,3.14,4.26,8.64,1.29,12.45Z"/>
    <polygon class="cls-2" points="505.12 71.7 448.2 71.7 448.2 84.17 469.73 84.17 469.73 142.25 483.59 142.25 483.59 84.17 505.12 84.17 505.12 71.7"/>
    <polygon class="cls-2" points="577.27 96.64 579.75 84.42 538.25 75.95 538.24 75.95 524.15 145.09 537.74 147.86 543.31 120.53 565.34 125.03 567.83 112.8 545.8 108.31 549.34 90.95 577.27 96.64"/>
    <path class="cls-2" d="m630.16,102.82c-19.08-5.68-39.15,5.19-44.83,24.27-5.68,19.08,5.18,39.15,24.27,44.83,19.08,5.68,39.15-5.18,44.83-24.27,5.68-19.08-5.18-39.15-24.27-44.83h0Zm-16.63,55.88h0c-11.77-3.51-18.48-15.9-14.98-27.68,3.5-11.78,15.9-18.49,27.68-14.98,11.78,3.51,18.49,15.9,14.98,27.68-3.51,11.78-15.9,18.49-27.68,14.98Z"/>
    <path class="cls-2" d="m779.83,210.66l-3.47-3.49-14.37-14.37-49.15,49.01,15.69,15.73,2.12,2.16c13.55,13.58,35.54,13.62,49.12.07,13.58-13.54,13.61-35.53.07-49.12h0Zm-41.93,38.77h0l-6.52-6.54,31.63-31.53,6.52,6.54c8.71,8.74,8.69,22.88-.05,31.58-8.73,8.71-22.87,8.69-31.59-.05Z"/>
    <path class="cls-3" d="m395.23,836.44c4.37-.85,8.11-3.94,9.48-8.4,1.95-6.39-1.69-13.14-8.12-15.37l.02-.04-11.75-3.59-2.87-.87-7.18-2.2-15.27,49.94,3.57,1.09,6.48,1.98,11.29,3.45.02-.05c8.01,2.12,16.3-2.33,18.71-10.23,1.78-5.8-.13-11.83-4.37-15.69h0Zm-13.46-19.02h0l1.01.31,5.91,1.81,1.01.31v.02c3.04,1.06,4.76,4.26,3.83,7.27-.92,3.02-4.13,4.71-7.25,3.88v.03s-1.01-.3-1.01-.3l-5.91-1.81-1-.3,3.42-11.21h0Zm-.75,34.66h0v.02s-1.15-.35-1.15-.35l-6.72-2.04-1.14-.35,3.89-12.73,1.15.35,6.72,2.05,1.14.35v.03c3.46,1.21,5.41,4.84,4.36,8.27-1.05,3.43-4.7,5.35-8.25,4.41Z"/>
    <path class="cls-3" d="m781.5,690.44c1.1-4.32-.08-9.02-3.53-12.17-4.93-4.49-12.58-4.11-17.36.75l-.03-.04-8.28,9.08-2.02,2.22-5.07,5.55,38.59,35.2,2.52-2.75,4.57-5.01,7.95-8.73-.04-.04c5.35-6.34,4.88-15.73-1.22-21.3-4.48-4.08-10.75-4.94-16.06-2.76h0Zm-22.95,4.01h0l.71-.78,4.16-4.57.71-.78h.02c2.26-2.28,5.88-2.46,8.22-.34,2.33,2.13,2.48,5.76.4,8.22h.02s-.71.78-.71.78l-4.17,4.57-.7.79-8.66-7.9h0Zm30.99,15.53h0v.03s-.79.87-.79.87l-4.73,5.19-.81.89-9.84-8.98.81-.89,4.73-5.19.8-.88.02.02c2.58-2.61,6.7-2.82,9.34-.4,2.66,2.42,2.82,6.55.46,9.34Z"/>
    <polygon class="cls-3" points="354.99 798.84 315.87 782.15 312.22 790.72 327.01 797.03 309.99 836.95 319.52 841.01 336.54 801.1 351.33 807.41 354.99 798.84"/>
    <path class="cls-3" d="m215.4,714.13c-14.97,0-27.1,12.13-27.1,27.09s12.13,27.09,27.1,27.09,27.1-12.12,27.1-27.09-12.14-27.09-27.1-27.09h0Zm0,43.82h0c-9.24,0-16.73-7.48-16.73-16.73s7.49-16.72,16.73-16.72,16.72,7.49,16.72,16.72-7.49,16.73-16.72,16.73Z"/>
    <path class="cls-3" d="m269.59,756.65c-14.97,0-27.09,12.12-27.09,27.09s12.12,27.09,27.09,27.09,27.1-12.13,27.1-27.09-12.13-27.09-27.1-27.09h0Zm0,43.81h0c-9.24,0-16.72-7.48-16.72-16.72s7.48-16.72,16.72-16.72,16.72,7.48,16.72,16.72-7.49,16.72-16.72,16.72Z"/>
    <path class="cls-3" d="m720.89,721.83l21.25,23.7c3.67,4.11,3.34,10.41-.76,14.09-4.1,3.68-10.41,3.33-14.09-.76l-21.24-23.72-7.43,6.66,24.83,27.7c5.48,6.12,16.57,5.12,24.77-2.25,8.2-7.35,10.41-18.26,4.93-24.38l-24.83-27.7-7.43,6.66Z"/>
    <path class="cls-3" d="m650.65,810.26c.13,6.04-3.05,11.93-8.74,14.97-8.08,4.3-18.12,1.25-22.43-6.84-4.3-8.08-1.25-18.11,6.83-22.42,5.4-2.87,11.65-2.45,16.5.53l2.35-10.02c-7.27-3.33-15.95-3.37-23.55.68-12.94,6.9-17.84,22.99-10.94,35.93,6.9,12.94,22.98,17.84,35.93,10.94,8.57-4.57,13.59-13.17,14.01-22.23-3.62-.56-7.76-1.22-9.96-1.55Z"/>
    <polygon class="cls-3" points="498.29 862.5 496.33 820.46 486.37 820.92 488.79 872.93 488.8 872.93 498.75 872.47 518.94 871.53 518.47 861.56 498.29 862.5"/>
    <polygon class="cls-3" points="551.22 855.15 544.72 813.57 534.87 815.11 542.91 866.55 542.91 866.55 552.76 865.01 572.72 861.89 571.19 852.04 551.22 855.15"/>
    <polygon class="cls-3" points="691.51 797.8 667.67 763.12 659.44 768.77 688.95 811.67 688.96 811.67 697.16 806.02 713.81 794.57 708.17 786.35 691.51 797.8"/>
    <polygon class="cls-3" points="200.28 702.39 207.59 697 189.26 672.19 147.94 702.72 153.93 710.84 170.27 698.77 180 711.94 187.31 706.54 177.57 693.38 187.95 685.7 200.28 702.39"/>
    <path class="cls-3" d="m454.19,872.57l10.62,1.18-14.08-53.87-10.69-1.18-25.56,49.46,10.62,1.18,5.53-10.69,20.52,2.28,3.05,11.65h0Zm-18.66-23.43h0l8.33-16.1,4.59,17.54-12.92-1.43Z"/>
  </g>
</svg>